<svg width="322" height="80" viewBox="0 0 322 80" xmlns="http://www.w3.org/2000/svg">
    <g fill="none" fill-rule="evenodd">
        <path d="M52.044 37.326c-8.031.1-14.51 6.587-14.608 14.603h-.007c.002.062.005.124.005.186 0 5.214-4.228 9.44-9.445 9.44-5.216 0-9.444-4.226-9.444-9.44 0-5.214 4.228-9.44 9.444-9.44h.008a14.62 14.62 0 0 0 10.364-4.319 14.598 14.598 0 0 0 4.238-10.398c0-.025 0-.048-.002-.074h.003c0-5.213 4.228-9.44 9.444-9.44 5.216 0 9.445 4.227 9.445 9.44 0 5.215-4.229 9.442-9.445 9.442M40.017 0C17.917 0 0 17.908 0 40s17.917 40 40.017 40 40.016-17.908 40.016-40S62.118 0 40.017 0" fill="#00C9EA"/>
        <path d="M258.96 11.547h-8.18a.813.813 0 0 0-.812.812v8.176c0 .448.365.812.813.812h8.179a.813.813 0 0 0 .812-.812v-8.176a.813.813 0 0 0-.812-.812M191.608 27.078h-8.18a.812.812 0 0 0-.812.811v26.317c0 1.246-.414 2.429-1.167 3.331a19.185 19.185 0 0 1-3.993 3.604c-2.043 1.381-4.358 2.082-6.883 2.082-3.305 0-5.864-.867-7.603-2.577-1.74-1.708-2.624-4.342-2.624-7.827V27.89a.813.813 0 0 0-.811-.811h-8.18a.813.813 0 0 0-.811.811v26.202c0 5.314 1.608 9.662 4.782 12.924 3.172 3.263 7.63 4.917 13.248 4.917 3.143 0 6.069-.689 8.695-2.048 2.59-1.338 4.755-3.038 6.437-5.054v5.11c0 .448.364.812.812.812h7.09a.812.812 0 0 0 .81-.812V27.89a.812.812 0 0 0-.81-.812M233.616 28.173c-2.691-1.51-5.862-2.276-9.424-2.276-3.141 0-6.066.689-8.696 2.047-2.59 1.34-4.755 3.04-6.436 5.055v-5.11a.812.812 0 0 0-.811-.812h-7.18a.813.813 0 0 0-.812.811V69.94c0 .447.364.811.812.811h8.179a.813.813 0 0 0 .812-.811V43.674a5.37 5.37 0 0 1 1.336-3.53 20.331 20.331 0 0 1 3.915-3.456c2.044-1.382 4.359-2.083 6.882-2.083 3.001 0 5.468.898 7.332 2.669 1.86 1.771 2.803 4.374 2.803 7.736v24.93c0 .447.365.811.812.811h8.18a.813.813 0 0 0 .812-.811V43.738c0-3.44-.751-6.548-2.232-9.237a16.04 16.04 0 0 0-6.284-6.328M258.96 27.077h-8.18a.812.812 0 0 0-.812.812V69.94c0 .448.364.811.812.811h8.18a.812.812 0 0 0 .812-.811V27.889a.812.812 0 0 0-.812-.812M144.864 61.044h-28.893a3.67 3.67 0 0 1-3.639-3.624V7.91a.813.813 0 0 0-.812-.813h-8.906a.813.813 0 0 0-.812.812v52.398c0 5.759 4.687 10.444 10.448 10.444h32.614a.813.813 0 0 0 .812-.812v-8.084a.813.813 0 0 0-.812-.811M299.02 27.077H285.16a1.138 1.138 0 0 1-1.135-1.13l-.006-12.492c0-.509-.415-.813-.818-.813a.8.8 0 0 0-.57.242l-8.082 8.122a.805.805 0 0 0-.236.573v4.424a1.134 1.134 0 0 1-1.128 1.074h-5.873a.813.813 0 0 0-.812.812v6.995c0 .448.365.812.812.812l6.119-.001c.491.11.854.54.882 1.042V57.45c0 4.835 1.395 8.482 4.147 10.84 2.75 2.356 6.412 3.55 10.884 3.55h9.678a.813.813 0 0 0 .812-.81v-7.592a.813.813 0 0 0-.812-.812h-6.77c-4.8 0-6.383-1.442-6.4-1.458-1.297-1.145-1.826-2.747-1.826-5.533V36.818a1.13 1.13 0 0 1 1.1-1.122h13.896a.813.813 0 0 0 .812-.812v-6.995a.813.813 0 0 0-.812-.812M318.892 24.058a6.206 6.206 0 0 1-2.207 2.205c-.921.546-1.942.819-3.061.819-1.126 0-2.15-.274-3.071-.823a6.268 6.268 0 0 1-2.206-2.206c-.55-.921-.825-1.94-.825-3.06 0-1.119.275-2.14.825-3.065a6.203 6.203 0 0 1 2.206-2.205c.921-.546 1.945-.819 3.071-.819 1.12 0 2.14.273 3.061.82a6.206 6.206 0 0 1 2.207 2.204c.549.925.824 1.946.824 3.065 0 1.12-.275 2.14-.824 3.065m2.46-6.32a8.427 8.427 0 0 0-4.472-4.469 8.205 8.205 0 0 0-3.256-.648 8.205 8.205 0 0 0-3.256.648 8.414 8.414 0 0 0-2.67 1.8 8.415 8.415 0 0 0-1.8 2.67 8.186 8.186 0 0 0-.65 3.254c0 1.159.216 2.243.65 3.255a8.415 8.415 0 0 0 1.8 2.669 8.397 8.397 0 0 0 2.67 1.8 8.192 8.192 0 0 0 3.256.649 8.193 8.193 0 0 0 3.256-.65 8.427 8.427 0 0 0 4.471-4.469 8.19 8.19 0 0 0 .649-3.254 8.192 8.192 0 0 0-.649-3.255" fill="#000"/>
        <path d="M314.897 20.505a.999.999 0 0 1-.673.27h-1.527v-2.083h1.555c.225 0 .44.075.645.225.206.15.309.41.309.784 0 .355-.103.623-.309.804m1.796.618c.252-.377.378-.834.378-1.371s-.121-1.095-.362-1.462a2.326 2.326 0 0 0-.939-.83 2.73 2.73 0 0 0-1.208-.28h-3.721v7.627h1.856V22.28h1.383l1.216 2.527h2.04l-1.475-2.905c.332-.192.612-.45.832-.779" fill="#000"/>
    </g>
</svg>
